# xmcd
#
# Track frame offsets:
# 150
# 26477
# 42917
# 65187
# 81499
# 101400
# 123898
# 149551
# 170685
# 197154
# 216072
# 238992
#
# Disc length: 3448 seconds
#
#
# Revision: 0
# Processed by: cddbd v1.5.1PL0 Copyright (c) Steve Scherf et al.
# Submitted via: FreeRIP 2.941 
#
DISCID=b60d760c
DTITLE=I.Almeida - O Invisivel
DYEAR=2005
DGENRE=Semba
TTITLE0=Atchimonha
TTITLE1=Marmelada
TTITLE2=Cara de Pau
TTITLE3=Aí mama
TTITLE4=Manha
TTITLE5=Katumbo
TTITLE6=Acerca-te
TTITLE7=Sente mais um pouco
TTITLE8=Kalunga
TTITLE9=Otha
TTITLE10=Africa
TTITLE11=Mora mix
EXTD=Angolanos, Sempre a Cantar com Sucesso...
EXTT0=
EXTT1=
EXTT2=
EXTT3=
EXTT4=
EXTT5=
EXTT6=
EXTT7=
EXTT8=
EXTT9=
EXTT10=
EXTT11=
PLAYORDER=
